<?xml version="1.0" encoding="UTF-8"?>
<svg viewBox="0 0 137.13303 128.0097" xmlns="http://www.w3.org/2000/svg" xmlns:xlink="http://www.w3.org/1999/xlink">
 <defs>
  <filter id="x">
   <feGaussianBlur stdDeviation="2.4615"/>
  </filter>
  <filter id="w" x="-.15187" y="-.16036" width="1.3037" height="1.3207">
   <feGaussianBlur stdDeviation="1.283"/>
  </filter>
  <linearGradient id="b">
   <stop stop-color="#a5a5a5" offset="0"/>
   <stop offset="1"/>
  </linearGradient>
  <linearGradient id="o" x1="104.81" x2="108.95" gradientUnits="userSpaceOnUse">
   <stop stop-color="#ffb142" offset="0"/>
   <stop stop-color="#c87600" offset="1"/>
  </linearGradient>
  <linearGradient id="v" x1="803.12" x2="856.3" y1="104.12" y2="20.429" gradientUnits="userSpaceOnUse">
   <stop stop-color="#0035ff" offset="0"/>
   <stop stop-color="#0035ff" stop-opacity="0" offset="1"/>
  </linearGradient>
  <linearGradient id="c">
   <stop stop-color="#666" offset="0"/>
   <stop stop-color="#666" stop-opacity="0" offset="1"/>
  </linearGradient>
  <linearGradient id="a">
   <stop stop-color="#fff" offset="0"/>
   <stop stop-color="#fff" stop-opacity="0" offset="1"/>
  </linearGradient>
  <linearGradient id="s" x1="911.88" x2="926.78" y1="303.69" y2="307.95" gradientUnits="userSpaceOnUse">
   <stop stop-color="#999" offset="0"/>
   <stop stop-color="#999" stop-opacity="0" offset="1"/>
  </linearGradient>
  <linearGradient id="q" x1="1024.1" x2="1019.9" y1="-282.77" y2="-384.19" gradientUnits="userSpaceOnUse">
   <stop stop-color="#333" offset="0"/>
   <stop stop-color="#333" stop-opacity="0" offset="1"/>
  </linearGradient>
  <linearGradient id="n" x1="-218.44" x2="-222.48" y1="823.24" y2="542.41" gradientUnits="userSpaceOnUse">
   <stop stop-color="#4d4d4d" offset="0"/>
   <stop stop-color="#4d4d4d" stop-opacity="0" offset="1"/>
  </linearGradient>
  <linearGradient id="k" x1="-249.75" x2="-253.79" y1="524.23" y2="382.73" gradientUnits="userSpaceOnUse">
   <stop stop-color="#000080" offset="0"/>
   <stop stop-color="#000080" stop-opacity="0" offset="1"/>
  </linearGradient>
  <linearGradient id="j" x1="-92.168" x2="-107.32" y1="386.85" y2="264.12" gradientUnits="userSpaceOnUse">
   <stop stop-color="#da0000" offset="0"/>
   <stop stop-color="#da0000" stop-opacity="0" offset="1"/>
  </linearGradient>
  <linearGradient id="h" x1="-190.15" x2="-229.55" y1="620.2" y2="536.35" gradientUnits="userSpaceOnUse">
   <stop stop-color="#006b00" offset="0"/>
   <stop stop-color="#006b00" stop-opacity="0" offset="1"/>
  </linearGradient>
  <linearGradient id="u" x1="902.79" x2="910.87" y1="337.02" y2="310.5" gradientUnits="userSpaceOnUse" xlink:href="#c"/>
  <linearGradient id="t" x1="922.49" x2="916.68" y1="292.83" y2="311.26" gradientUnits="userSpaceOnUse" xlink:href="#a"/>
  <linearGradient id="r" x1="888.74" x2="843.62" y1="-74.716" y2="51.615" gradientUnits="userSpaceOnUse" xlink:href="#a"/>
  <linearGradient id="p" x1="1087" x2="1099.1" y1="-505.69" y2="-348.96" gradientUnits="userSpaceOnUse" xlink:href="#a"/>
  <linearGradient id="m" x1="-414.41" x2="-256.82" y1="140.37" y2="308.06" gradientUnits="userSpaceOnUse" xlink:href="#a"/>
  <linearGradient id="l" x1="-72.975" x2="-99.398" y1="733.33" y2="413.11" gradientUnits="userSpaceOnUse" xlink:href="#c"/>
  <linearGradient id="i" x1="-22.467" x2="94.397" y1="173.71" y2="310.08" gradientUnits="userSpaceOnUse" xlink:href="#a"/>
  <radialGradient id="d" cx="414.68" cy="-8.8805" r="123.55" gradientTransform="matrix(-1.8232e-6 .27968 -.60927 0 102.54 -41.049)" gradientUnits="userSpaceOnUse">
   <stop stop-color="#ffb142" offset="0"/>
   <stop stop-color="#ffb141" offset=".8868"/>
   <stop stop-color="#c87600" offset="1"/>
  </radialGradient>
  <radialGradient id="g" cx="488.95" cy="582.85" r="167.56" gradientTransform="matrix(0 -.46285 .41458 -1.2039e-6 -147.94 242.41)" gradientUnits="userSpaceOnUse" xlink:href="#b"/>
  <radialGradient id="e" cx="441.42" cy="734.65" r="59.255" gradientTransform="matrix(-1.6166 1.6104 -3.9228 -3.938 4772.7 2356.6)" gradientUnits="userSpaceOnUse" xlink:href="#b"/>
  <radialGradient id="f" cx="296.64" cy="689.45" r="59.255" gradientTransform="matrix(1.4619 -1.752 -4.0043 -3.3413 3754.9 3020.1)" gradientUnits="userSpaceOnUse" xlink:href="#b"/>
 </defs>
 <g transform="translate(-27.87 -29.448)">
  <path d="m97.071 137.76c-15.039 1.5482-32.289 13.718-25.433 16.372s26.755 3.761 30.515 0.66464c1.932-1.5911 5.3888-5.5758 5.7961-9.3149 0.40794 3.7387 3.8545 7.7239 5.7864 9.3149 3.7598 3.0963 23.669 1.9894 30.525-0.66464s-10.393-14.824-25.433-16.372c-7.7443 0.74644-10.53 3.3485-10.879 6.3337-0.34898-2.9852-3.1345-5.5873-10.879-6.3337z" fill="url(#d)" fill-rule="evenodd" stroke="#000" stroke-width="1.5639"/>
  <path d="m97.073 137.77c-7.3817 0.75987-15.289 4.0786-20.624 7.575 8.0798 3.7367 17.959 6.0395 28.668 6.3044 1.3722-1.8055 2.6015-4.0192 2.8345-6.1578 0.23115 2.1185 1.4316 4.3126 2.7857 6.1089 10.533-0.44597 20.207-2.8606 28.081-6.666-5.3157-3.3439-12.893-6.4342-19.988-7.1645-7.7443 0.74644-10.53 3.3485-10.879 6.3337-0.34898-2.9852-3.1345-5.5873-10.879-6.3337z" fill-opacity=".3137" fill-rule="evenodd"/>
  <g transform="translate(.81325 -1.7883)" stroke="#000" stroke-linecap="round" stroke-width="1.5639">
   <path d="m158.17 96.049a51.785 51.785 0 0 1 -103.57 0 51.785 51.785 0 1 1 103.57 0z" fill="url(#g)"/>
   <path d="m131.98 121.94a25.105 25.105 0 1 1 -50.209 0 25.105 25.105 0 1 1 50.209 0z" fill="#fff"/>
   <path d="m95.749 61.59c-7.1734 0-13 6.7041-13 14.964s5.8263 14.964 13 14.964c4.2156 0 7.9566-2.3178 10.331-5.9036 2.3746 3.5884 6.1237 5.9036 10.341 5.9036 7.1734 0 13-6.7041 13-14.964s-5.8263-14.964-13-14.964c-4.2169 0-7.9665 2.3159-10.341 5.9036-2.3749-3.585-6.1163-5.9036-10.331-5.9036z" fill="#fff"/>
   <path d="m103.81 79.191a3.2488 3.2488 0 1 1 -6.4977 0 3.2488 3.2488 0 1 1 6.4977 0z"/>
   <path d="m115.44 79.191a3.2488 3.2488 0 0 1 -6.4977 0 3.2488 3.2488 0 1 1 6.4977 0z"/>
  </g>
  <g transform="translate(.81325 -1.7883)">
   <path d="m59.533 75.978c0.80898-2.167 1.616-4.2317 2.8235-6.7375l11.693 23.31c1.7734 3.1522 2.3241 2.8989 5.4863 4.0211 15.886 4.6004 31.36 9.0888 56.302-1.5156 3.7278-12.791 9.3229-18.565 15.182-24.446 1.1674 2.0518 1.9241 4.4964 2.1663 5.6-4.5306 5.4371-9.0742 9.3136-12.403 23.119 1.733 8.0416 2.9553 22.756-4.34 40.557-18.19 9.6874-39.829 10.999-61.119-0.40158-4.3046-11.819-8.0434-31.184-7.0392-43.46z" fill="#548074" stroke="#000" stroke-linecap="round" stroke-linejoin="round" stroke-width="1.4818"/>
   <path d="m76.024 105.11c18.205 4.8752 39.14 6.3607 57.709-0.16412 1.7379 10.092-4.0599 28.874-5.8265 32.74-17.062 5.7111-28.66 5.9016-45.891 0.49237-2.954-10.241-8.0597-22.799-5.9907-33.068z" fill="#ececec" stroke="#000" stroke-linecap="round" stroke-linejoin="round" stroke-width="1.6101"/>
   <g transform="matrix(.00989 .03562 -.03562 .00989 104.5 164.84)" fill="#006b00">
    <path d="m-831.78-648.9c-24.273 12.361-6.7424-37.913-31.843-30.127s-15.83 55.379-42.102 55.207 15.434-37.802-10.013-43.613-36.572 40.047-59.961 25.094 39.203-28.508 22.056-50.034-54.275 23.837-61.825-2.7719 38.219-29.154 38.961-56.811-42.678 11.986-36.822-14.693 42.689 6.5898 55.767-17.68-53.102-40.808-32.477-57.976 32.127 27.257 55.413 13.422-5.4607-29.299 20.215-37.406 1.1809 38.946 27.092 37.176 17.66-56.068 42.799-47.4-13.899 44.996 7.0889 60.913 27.982-42.458 45.715-23.65-45.234 28.734-34.213 53.532 57.75-9.0821 59.605 16.842-49.734 8.2399-53.324 35.683 51.404 18.165 40.471 41.58-38.981-27.728-56.872-9.0318 28.544 39.384 4.2705 51.745z"/>
    <path transform="matrix(-.16775 -1.0328 -1.2296 .14834 -671.47 -383.62)" d="m420.71 258.43c0 8.4815-5.9162 15.357-13.214 15.357s-13.214-6.8756-13.214-15.357 5.9162-15.357 13.214-15.357 13.214 6.8756 13.214 15.357z"/>
    <path transform="matrix(-.85294 -.60609 -.75811 .97934 -225.84 -866.53)" d="m420.71 258.43c0 8.4815-5.9162 15.357-13.214 15.357s-13.214-6.8756-13.214-15.357 5.9162-15.357 13.214-15.357 13.214 6.8756 13.214 15.357z"/>
    <path transform="matrix(.47276 -.77864 1.0866 .58772 -1590.8 -690.46)" d="m441.43 598.43c0 9.2705-6.0761 16.786-13.571 16.786s-13.571-7.5152-13.571-16.786 6.0761-16.786 13.571-16.786 13.571 7.5152 13.571 16.786z"/>
    <path transform="matrix(.73223 -.5356 .52103 .97088 -1440.9 -967.39)" d="m441.43 598.43c0 9.2705-6.0761 16.786-13.571 16.786s-13.571-7.5152-13.571-16.786 6.0761-16.786 13.571-16.786 13.571 7.5152 13.571 16.786z"/>
   </g>
   <g transform="matrix(.04404 0 0 .04404 128.74 156.26)" fill="#f90000">
    <path d="m-831.78-648.9c-24.273 12.361-6.7424-37.913-31.843-30.127s-15.83 55.379-42.102 55.207 15.434-37.802-10.013-43.613-36.572 40.047-59.961 25.094 39.203-28.508 22.056-50.034-54.275 23.837-61.825-2.7719 38.219-29.154 38.961-56.811-42.678 11.986-36.822-14.693 42.689 6.5898 55.767-17.68-53.102-40.808-32.477-57.976 32.127 27.257 55.413 13.422-5.4607-29.299 20.215-37.406 1.1809 38.946 27.092 37.176 17.66-56.068 42.799-47.4-13.899 44.996 7.0889 60.913 27.982-42.458 45.715-23.65-45.234 28.734-34.213 53.532 57.75-9.0821 59.605 16.842-49.734 8.2399-53.324 35.683 51.404 18.165 40.471 41.58-38.981-27.728-56.872-9.0318 28.544 39.384 4.2705 51.745z"/>
    <path transform="matrix(-.16775 -1.0328 -1.2296 .14834 -671.47 -383.62)" d="m420.71 258.43c0 8.4815-5.9162 15.357-13.214 15.357s-13.214-6.8756-13.214-15.357 5.9162-15.357 13.214-15.357 13.214 6.8756 13.214 15.357z"/>
    <path transform="matrix(-.85294 -.60609 -.75811 .97934 -225.84 -866.53)" d="m420.71 258.43c0 8.4815-5.9162 15.357-13.214 15.357s-13.214-6.8756-13.214-15.357 5.9162-15.357 13.214-15.357 13.214 6.8756 13.214 15.357z"/>
    <path transform="matrix(.47276 -.77864 1.0866 .58772 -1590.8 -690.46)" d="m441.43 598.43c0 9.2705-6.0761 16.786-13.571 16.786s-13.571-7.5152-13.571-16.786 6.0761-16.786 13.571-16.786 13.571 7.5152 13.571 16.786z"/>
    <path transform="matrix(.73223 -.5356 .52103 .97088 -1440.9 -967.39)" d="m441.43 598.43c0 9.2705-6.0761 16.786-13.571 16.786s-13.571-7.5152-13.571-16.786 6.0761-16.786 13.571-16.786 13.571 7.5152 13.571 16.786z"/>
   </g>
   <g transform="matrix(-.00834 .06242 -.07328 -.00711 41.432 168.24)" fill="#00f">
    <path d="m-831.78-648.9c-24.273 12.361-6.7424-37.913-31.843-30.127s-15.83 55.379-42.102 55.207 15.434-37.802-10.013-43.613-36.572 40.047-59.961 25.094 39.203-28.508 22.056-50.034-54.275 23.837-61.825-2.7719 38.219-29.154 38.961-56.811-42.678 11.986-36.822-14.693 42.689 6.5898 55.767-17.68-53.102-40.808-32.477-57.976 32.127 27.257 55.413 13.422-5.4607-29.299 20.215-37.406 1.1809 38.946 27.092 37.176 17.66-56.068 42.799-47.4-13.899 44.996 7.0889 60.913 27.982-42.458 45.715-23.65-45.234 28.734-34.213 53.532 57.75-9.0821 59.605 16.842-49.734 8.2399-53.324 35.683 51.404 18.165 40.471 41.58-38.981-27.728-56.872-9.0318 28.544 39.384 4.2705 51.745z"/>
    <path transform="matrix(-.16775 -1.0328 -1.2296 .14834 -671.47 -383.62)" d="m420.71 258.43c0 8.4815-5.9162 15.357-13.214 15.357s-13.214-6.8756-13.214-15.357 5.9162-15.357 13.214-15.357 13.214 6.8756 13.214 15.357z"/>
    <path transform="matrix(-.85294 -.60609 -.75811 .97934 -225.84 -866.53)" d="m420.71 258.43c0 8.4815-5.9162 15.357-13.214 15.357s-13.214-6.8756-13.214-15.357 5.9162-15.357 13.214-15.357 13.214 6.8756 13.214 15.357z"/>
    <path transform="matrix(.47276 -.77864 1.0866 .58772 -1590.8 -690.46)" d="m441.43 598.43c0 9.2705-6.0761 16.786-13.571 16.786s-13.571-7.5152-13.571-16.786 6.0761-16.786 13.571-16.786 13.571 7.5152 13.571 16.786z"/>
    <path transform="matrix(.73223 -.5356 .52103 .97088 -1440.9 -967.39)" d="m441.43 598.43c0 9.2705-6.0761 16.786-13.571 16.786s-13.571-7.5152-13.571-16.786 6.0761-16.786 13.571-16.786 13.571 7.5152 13.571 16.786z"/>
   </g>
  </g>
  <g transform="translate(.81325 -1.7883)" fill-rule="evenodd">
   <path d="m106.7 87.4c-4.5287 0-9.4512 4.1243-9.2543 6.7292s8.0729 13.458 9.845 13.458 8.6636-10.636 8.4667-13.675-6.1039-6.7292-9.0574-6.5121z" fill-opacity=".3137"/>
   <path d="m105.99 84.791c-4.5287 0-9.4512 3.7411-9.2543 6.1039s8.0729 12.208 9.845 12.208 8.6636-9.6481 8.4667-12.405-6.1039-6.1039-9.0574-5.907z" fill="url(#o)" stroke="#000" stroke-width="1.5639"/>
  </g>
  <path d="m156.94 79.863c0.10511 1.3464 0.0204 2.7103 0.16616 4.0759 3.5925 33.655-22.896 54.302-56.258 54.284-2.3258 1.0052-20.136 3.612-18.026-4.421 6.9152-0.0601 12.173-15.505 1.5393-23.074-11.541-5.9803-8.7931-10.009-32.897-14.356 1.7166 27.321 27.023 50.775 55.725 49.672 34.474-1.3244 52.647-23.039 51.794-51.784-0.14826-4.9932-0.72088-9.8261-2.0428-14.397z" fill-opacity=".3137"/>
  <path d="m65.06502,108.79418c-.26219.0504-.4365.10861-.47536.17621-.13224.22778 1.9869.41319 3.3607.65561 .70056.12361 1.43624.238 2.1879.34345 .09955-.42519.19992-.8438.30551-1.25641l-2.49116-.10598c-.57968-.024-2.10002.0407-2.8876.18712zm-1.6265,7.82878c-.05447.0104-.08005.029-.07311.0612 .06416.30558 2.34867,1.16849 3.09371,1.3765l2.24207.62537c.04226-.42411.08773-.83673.13659-1.25223-.70667-.12337-1.39671-.24544-2.06443-.33888-1.20887-.16908-2.9546-.55087-3.33483-.47195z" fill-opacity=".3137"/>
  <g transform="translate(10.813 -1.7883)">
   <path d="m139.24 125.8c-12.702 2.556-25.39 5.9328-37.872 9.3917-1.5473 1.5622-6.7217-1.3422-11.003 0.55572-2.7462 1.404-8.2239 4.4811-5.5016 7.9746 4.5082 3.2286 12.66 2.6483 16.237-1.9222 9.7916 0.0447 18.097-3.9634 27.696-5.6345 12.779-3.6935 21.612-5.0361 22.371-9.319 0.49004-3.1546-9.6474-2.0281-11.926-1.0464z"/>
   <g transform="matrix(.06084 -.08577 .08577 .06084 18.368 198.73)">
    <path transform="rotate(40.619)" d="m962.02-382.5h342.86a72.857 22.857 0 0 1 72.857 22.857 72.857 22.857 0 0 1 -72.857 22.857h-342.86a72.857 22.857 0 0 1 -72.857 -22.857 72.857 22.857 0 0 1 72.857 -22.857" fill="#a05a2c"/>
    <path transform="matrix(.96907,.24679,.38008,.92496,0,0)" d="m845.22-4.3046h52.76a24.813 51.192 0 0 1 24.813 51.192v4.3997a24.813 51.192 0 0 1 -24.813 51.192h-52.76a24.813 51.192 0 0 1 -24.813 -51.192v-4.3997a24.813 51.192 0 0 1 24.813 -51.192" fill="#008eff"/>
    <path transform="matrix(.96907,.24679,.38008,.92496,0,0)" d="m845.22-4.3046h52.76a24.813 51.192 0 0 1 24.813 51.192v4.3997a24.813 51.192 0 0 1 -24.813 51.192h-52.76a24.813 51.192 0 0 1 -24.813 -51.192v-4.3997a24.813 51.192 0 0 1 24.813 -51.192" fill="url(#v)"/>
    <path d="m940.49236,309.56731c-.86027-.42317-1.71091-.82915-2.55108-1.2175-.87186-.403-1.73246-.78702-2.58084-1.1516-.88474-.38019-1.75619-.73923-2.61331-1.07658-.89887-.35378-1.78196-.68371-2.64806-.98916-.91404-.32236-1.80915-.61747-2.68389-.88459-.93137-.28441-1.83964-.5371-2.72309-.75718-.95032-.23675-3.1219-.97148-4.0126-1.13169-4.48663-.97928-6.33786,1.5479-8.82668,3.78163-2.2325,2.00369-5.36178,3.42238-4.98608,7.66259 .12614.91613.32262,1.87634.58676,2.87688 .23824.90241.53153,1.83762.87791,2.80289 .31764.88521.67994,1.7957 1.08539,2.72934 .37698.86811.79126,1.75624 1.24164,2.66268 .42294.85124.87771,1.71864 1.3633,2.60078 .4602.836.94809,1.68525 1.4628,2.54653 .49122.82198 1.00688,1.65492 1.54623,2.49778 .51767.80898 1.05718,1.62711 1.61785,2.45345 6.36006-10.01303 14.67653-17.89973 23.84375-25.40625" fill="#b3b3b3"/>
    <path d="m940.49236,309.56731c-.86027-.42317-1.71091-.82915-2.55108-1.2175-.87186-.403-1.73246-.78702-2.58084-1.1516-.88474-.38019-1.75619-.73923-2.61331-1.07658-.89887-.35378-1.78196-.68371-2.64806-.98916-.91404-.32236-1.80915-.61747-2.68389-.88459-.93137-.28441-1.83964-.5371-2.72309-.75718-.95032-.23675-3.1219-.97148-4.0126-1.13169-4.48663-.97928-6.33786,1.5479-8.82668,3.78163-2.2325,2.00369-5.36178,3.42238-4.98608,7.66259 .12614.91613.32262,1.87634.58676,2.87688 .23824.90241.53153,1.83762.87791,2.80289 .31764.88521.67994,1.7957 1.08539,2.72934 .37698.86811.79126,1.75624 1.24164,2.66268 .42294.85124.87771,1.71864 1.3633,2.60078 .4602.836.94809,1.68525 1.4628,2.54653 .49122.82198 1.00688,1.65492 1.54623,2.49778 .51767.80898 1.05718,1.62711 1.61785,2.45345 6.36006-10.01303 14.67653-17.89973 23.84375-25.40625" fill="url(#u)"/>
    <path d="m940.49236,309.56731c-.86027-.42317-1.71091-.82915-2.55108-1.2175-.87186-.403-1.73246-.78702-2.58084-1.1516-.88474-.38019-1.75619-.73923-2.61331-1.07658-.89887-.35378-1.78196-.68371-2.64806-.98916-.91404-.32236-1.80915-.61747-2.68389-.88459-.93137-.28441-1.83964-.5371-2.72309-.75718-.95032-.23675-3.1219-.97148-4.0126-1.13169-4.48663-.97928-6.33786,1.5479-8.82668,3.78163-2.2325,2.00369-5.36178,3.42238-4.98608,7.66259 .12614.91613.32262,1.87634.58676,2.87688 .23824.90241.53153,1.83762.87791,2.80289 .31764.88521.67994,1.7957 1.08539,2.72934 .37698.86811.79126,1.75624 1.24164,2.66268 .42294.85124.87771,1.71864 1.3633,2.60078 .4602.836.94809,1.68525 1.4628,2.54653 .49122.82198 1.00688,1.65492 1.54623,2.49778 .51767.80898 1.05718,1.62711 1.61785,2.45345 6.36006-10.01303 14.67653-17.89973 23.84375-25.40625" fill="url(#t)"/>
    <path d="m940.49236,309.56731c-.86027-.42317-1.71091-.82915-2.55108-1.2175-.87186-.403-1.73246-.78702-2.58084-1.1516-.88474-.38019-1.75619-.73923-2.61331-1.07658-.89887-.35378-1.78196-.68371-2.64806-.98916-.91404-.32236-1.80915-.61747-2.68389-.88459-.93137-.28441-1.83964-.5371-2.72309-.75718-.95032-.23675-3.1219-.97148-4.0126-1.13169-4.48663-.97928-6.33786,1.5479-8.82668,3.78163-2.2325,2.00369-5.36178,3.42238-4.98608,7.66259 .12614.91613.32262,1.87634.58676,2.87688 .23824.90241.53153,1.83762.87791,2.80289 .31764.88521.67994,1.7957 1.08539,2.72934 .37698.86811.79126,1.75624 1.24164,2.66268 .42294.85124.87771,1.71864 1.3633,2.60078 .4602.836.94809,1.68525 1.4628,2.54653 .49122.82198 1.00688,1.65492 1.54623,2.49778 .51767.80898 1.05718,1.62711 1.61785,2.45345 6.36006-10.01303 14.67653-17.89973 23.84375-25.40625" fill="url(#s)"/>
    <path transform="matrix(.96907,.24679,.38008,.92496,0,0)" d="m845.22-4.3046h52.76a24.813 51.192 0 0 1 24.813 51.192v4.3997a24.813 51.192 0 0 1 -24.813 51.192h-52.76a24.813 51.192 0 0 1 -24.813 -51.192v-4.3997a24.813 51.192 0 0 1 24.813 -51.192" fill="url(#r)"/>
    <path transform="rotate(40.619)" d="m962.02-382.5h342.86a72.857 22.857 0 0 1 72.857 22.857 72.857 22.857 0 0 1 -72.857 22.857h-342.86a72.857 22.857 0 0 1 -72.857 -22.857 72.857 22.857 0 0 1 72.857 -22.857" fill="url(#q)"/>
    <path transform="rotate(40.619)" d="m962.02-382.5h342.86a72.857 22.857 0 0 1 72.857 22.857 72.857 22.857 0 0 1 -72.857 22.857h-342.86a72.857 22.857 0 0 1 -72.857 -22.857 72.857 22.857 0 0 1 72.857 -22.857" fill="url(#p)"/>
   </g>
  </g>
  <g transform="matrix(.28434 -.04406 .0467 .30135 -335.44 37.883)" fill-rule="evenodd" stroke="#000" stroke-width="5">
   <path d="m1344.6 353.74c48.111 17.3-14.164 94.143 37.819 161.19 9.6084 12.393-57.868 2.0908-81.723-66.585-23.198-66.786-1.1323-107.54 43.904-94.607z" fill="#fff"/>
   <path d="m1344.6 353.74c48.111 17.3-42.588 102.12 37.819 161.19 22.626 16.622-57.868 2.0908-81.723-66.585-23.198-66.786-1.1323-107.54 43.904-94.607z" fill="url(#e)"/>
  </g>
  <g transform="translate(.81325 -1.7883)">
   <path d="m55.622 101.86c-14.433-0.23291-29.368 11.375-28.491 26.662 0.44335 12.778 14.852 20.684 26.476 17.113 5.3009-0.84246 9.6261-4.8224 13.796-7.2235 8.9108 0.53318 20.893-4.0053 21.081-14.416-1.0361-14.991-19.875-22.571-32.862-22.135zm14.137 23.004c3.3985-1.0211 7.726 4.2502 3.2552 5.7044-2.7005 1.7099-9.222-1.3355-6.3864-4.5573 0.82716-0.78789 1.9996-1.1447 3.1312-1.1471z" fill="#1a1a1a"/>
   <g transform="matrix(.10063 0 0 .08698 66.771 86.023)">
    <path d="m-26.76 461.1 7.8287-10.354 6.0609-6.8185 5.8084-4.2932 8.0812-4.5457 9.849-3.5355 10.859-2.2728 9.3439-0.25254 8.8388 0.75762 8.0812 1.5152 11.112 3.5355 8.3338 4.0406 6.0609 3.283 6.566 5.3033 4.7982 4.0406 4.5457 5.3033 5.3033 7.8287 2.7779 4.5457 2.5254 6.3134 2.0203 6.8185 1.2627 13.637 3.7881-11.112-6.3135-29.042-22.223-25.001-41.416-10.102-35.608 5.0508-28.789 28.284 0.50508 7.0711z" fill="#cc8e4a" fill-rule="evenodd"/>
    <path d="m22.728 227.78c-65.247-26.064-132.88-30.637-188.16-16.179-75.79 13.264-148.51 68.729-186.43 151.09-55.635 120.83-15.397 254.02 89.833 297.3 85.635 35.222 188.05 0.0816 253.21-79.337 84.776 6.0779 160.36-23.561 192.15-83.106 46.27-86.691-17.763-204.14-142.91-262.14-5.8664-2.7189-11.766-5.2583-17.683-7.6218zm38.878 202.23c33.822 13.911 50.386 48.767 37.006 77.828s-51.672 41.393-85.495 27.482-50.406-48.814-37.025-77.875 51.692-41.346 85.514-27.435z" fill="#cca24a"/>
    <path d="m22.728 227.78c-65.247-26.064-132.88-30.637-188.16-16.179-75.79 13.264-148.51 68.729-186.43 151.09-55.635 120.83-15.397 254.02 89.833 297.3 85.635 35.222 188.05 0.0816 253.21-79.337 84.776 6.0779 160.36-23.561 192.15-83.106 46.27-86.691-17.763-204.14-142.91-262.14-5.8664-2.7189-11.766-5.2583-17.683-7.6218zm38.878 202.23c33.822 13.911 50.386 48.767 37.006 77.828s-51.672 41.393-85.495 27.482-50.406-48.814-37.025-77.875 51.692-41.346 85.514-27.435z" fill="url(#n)"/>
    <path d="m22.728 227.78c-65.247-26.064-132.88-30.637-188.16-16.179-75.79 13.264-148.51 68.729-186.43 151.09-55.635 120.83-15.397 254.02 89.833 297.3 85.635 35.222 188.05 0.0816 253.21-79.337 84.776 6.0779 160.36-23.561 192.15-83.106 46.27-86.691-17.763-204.14-142.91-262.14-5.8664-2.7189-11.766-5.2583-17.683-7.6218zm38.878 202.23c33.822 13.911 50.386 48.767 37.006 77.828s-51.672 41.393-85.495 27.482-50.406-48.814-37.025-77.875 51.692-41.346 85.514-27.435z" fill="url(#m)"/>
    <path d="m-110.17 258.06c-15.295 0-28.896 6.4941-37.648 16.595-21.539 10.043-33.857 29.471-27.874 45.238 5.0354 13.27 21.556 20.021 40.317 17.993 8e-3 5e-3 0.0241-4e-3 0.0321 0 7.1263 3.9986 15.495 6.3345 24.466 6.4535 0.14397 0.10048 0.27327 0.21826 0.41808 0.31791 21.663 14.901 47.773 14.901 58.257 0 8.6734-12.328 3.9304-31.001-10.224-45.524-1.2111-22.853-22.132-41.073-47.743-41.073z" fill="#f00"/>
    <path d="m-271.39 333.85c13.263 0 25.057 6.4941 32.647 16.595 18.678 10.043 29.36 29.471 24.172 45.238-4.3666 13.27-18.692 20.021-34.961 17.993h-0.0278c-6.1797 3.9986-13.437 6.3345-21.216 6.4535-0.12485 0.10048-0.23697 0.21825-0.36255 0.3179-18.785 14.901-41.427 14.901-50.518 0-7.5212-12.328-3.4083-31.001 8.8658-45.524 1.0502-22.853 19.192-41.073 41.401-41.073z" fill="#00f"/>
    <path d="m-246.99 568.83c0 14.456 6.0721 27.31 15.516 35.583 9.3907 20.358 27.557 32 42.299 26.345 12.408-4.7592 18.72-20.373 16.824-38.105 4e-3 -8e-3 -4e-3 -0.0227 0-0.0304 3.7388-6.7354 5.9229-14.645 6.0342-23.124 0.0939-0.13608 0.20406-0.25829 0.29723-0.39516 13.933-20.474 13.933-45.153 0-55.061-11.527-8.1976-28.987-3.7148-42.566 9.663-21.368 1.1447-38.405 20.918-38.405 45.124z" fill="#008000"/>
    <path d="m-110.17 468.36c-15.295 0-28.896-5.3076-37.648-13.563-21.539-8.2083-33.857-24.087-27.874-36.973 5.0354-10.845 21.556-16.363 40.317-14.706h0.0321c7.1263-3.268 15.495-5.1772 24.466-5.2744 0.14397-0.0821 0.27327-0.17838 0.41808-0.25982 21.663-12.179 47.773-12.179 58.257 0 8.6734 10.076 3.9304 25.337-10.224 37.207-1.2111 18.678-22.132 33.569-47.743 33.569z" fill="#fff"/>
    <path d="m69.214 290.21c12.654 0 23.906 5.4154 31.147 13.838 17.82 8.3751 28.01 24.576 23.061 37.724-4.1659 11.066-17.833 16.696-33.355 15.005h-0.0266c-5.8957 3.3344-12.82 5.2824-20.241 5.3816-0.11911 0.0838-0.22608 0.18199-0.34589 0.26509-17.922 12.426-39.524 12.426-48.196 0-7.1756-10.281-3.2517-25.852 8.4583-37.963 1.002-19.057 18.31-34.251 39.499-34.251z" fill="#1a1a1a"/>
    <path d="m-110.17 468.36c-15.295 0-28.896-5.3076-37.648-13.563-21.539-8.2083-33.857-24.087-27.874-36.973 5.0354-10.845 21.556-16.363 40.317-14.706h0.0321c7.1263-3.268 15.495-5.1772 24.466-5.2744 0.14397-0.0821 0.27327-0.17838 0.41808-0.25982 21.663-12.179 47.773-12.179 58.257 0 8.6734 10.076 3.9304 25.337-10.224 37.207-1.2111 18.678-22.132 33.569-47.743 33.569z" fill="url(#l)"/>
    <path d="m-271.39 333.85c13.263 0 25.057 6.4941 32.647 16.595 18.678 10.043 29.36 29.471 24.172 45.238-4.3666 13.27-18.692 20.021-34.961 17.993h-0.0278c-6.1797 3.9986-13.437 6.3345-21.216 6.4535-0.12485 0.10048-0.23697 0.21825-0.36255 0.3179-18.785 14.901-41.427 14.901-50.518 0-7.5212-12.328-3.4083-31.001 8.8658-45.524 1.0502-22.853 19.192-41.073 41.401-41.073z" fill="url(#k)"/>
    <path d="m-110.17 258.06c-15.295 0-28.896 6.4941-37.648 16.595-21.539 10.043-33.857 29.471-27.874 45.238 5.0354 13.27 21.556 20.021 40.317 17.993 8e-3 5e-3 0.0241-4e-3 0.0321 0 7.1263 3.9986 15.495 6.3345 24.466 6.4535 0.14397 0.10048 0.27327 0.21826 0.41808 0.31791 21.663 14.901 47.773 14.901 58.257 0 8.6734-12.328 3.9304-31.001-10.224-45.524-1.2111-22.853-22.132-41.073-47.743-41.073z" fill="url(#j)"/>
    <path d="m69.214 290.21c12.654 0 23.906 5.4154 31.147 13.838 17.82 8.3751 28.01 24.576 23.061 37.724-4.1659 11.066-17.833 16.696-33.355 15.005h-0.0266c-5.8957 3.3344-12.82 5.2824-20.241 5.3816-0.11911 0.0838-0.22608 0.18199-0.34589 0.26509-17.922 12.426-39.524 12.426-48.196 0-7.1756-10.281-3.2517-25.852 8.4583-37.963 1.002-19.057 18.31-34.251 39.499-34.251z" fill="url(#i)"/>
    <path d="m-246.99 568.83c0 14.456 6.0721 27.31 15.516 35.583 9.3907 20.358 27.557 32 42.299 26.345 12.408-4.7592 18.72-20.373 16.824-38.105 4e-3 -8e-3 -4e-3 -0.0227 0-0.0304 3.7388-6.7354 5.9229-14.645 6.0342-23.124 0.0939-0.13608 0.20406-0.25829 0.29723-0.39516 13.933-20.474 13.933-45.153 0-55.061-11.527-8.1976-28.987-3.7148-42.566 9.663-21.368 1.1447-38.405 20.918-38.405 45.124z" fill="url(#h)"/>
   </g>
   <path d="m64.63 128.12c2.3972-1.5378 5.5708-4.8632 7.0202-4.5146 3.175-0.0393 6.0793 4.4914 10.269 10.941-2.2634-0.1573-3.7126 3.2121-10.156 1.1767-6.3723-1.3531-7.1552-5.643-7.1326-7.6026z" stroke="#000" stroke-width=".31278"/>
  </g>
  <g transform="matrix(.41878 -.083 .09666 .3596 94.547 -125.53)">
   <path transform="translate(429.74 389.47)" d="m-483.31 115.64c-20.027-0.0411-87.175-27.39-83.085-73.893-1.6652-17.201 74.523-21.082 101.71-2.7237 36.752 18.541 53.978 54.489 50.319 68.485-19.501 36.187-41.984 17.458-68.943 8.1317z" fill="#a40" stroke="#321605" stroke-width="3.9"/>
   <path transform="matrix(.88847 0 0 .88847 -3.1569 49.647)" d="m-32.942 429.21c-12.03 5.8239-8.3825 13.244-3.8492 17.469 6.4942 3.7437 11.863 1.4866 15.989-7.4023-0.63992-3.5781 0.42628-9.9881-12.14-10.067z" fill="#6f2d00" filter="url(#w)"/>
   <path d="m-37.726 425.65c-12.03 5.8239-8.3825 13.244-3.8492 17.469 6.4942 3.7437 11.863 1.4866 15.989-7.4023-0.63992-3.5781 0.42627-9.9881-12.14-10.067z" fill="#a40" stroke="#4a2108" stroke-width="3.9"/>
   <path transform="translate(429.74 389.47)" d="m-557.2 63.667c26.245 17.416 50.875 32.958 76.368 29.345 30.96 22.33 44.141 11.413 61.165 1.0607-1.6706 13.052 1.1464 43.137-57.983 21.213-69.138-20.589-66.451-35.477-79.55-51.619z" fill="#833400" filter="url(#x)"/>
  </g>
  <g transform="matrix(.30494 0 0 .30494 -337.65 -22.682)" fill-rule="evenodd" stroke="#000" stroke-width="5">
   <path d="m1592.6 353.74c-48.111 17.3 14.163 94.143-37.819 161.19-9.6084 12.393 57.868 2.0908 81.723-66.585 23.198-66.786 1.1324-107.54-43.904-94.607z" fill="#fff"/>
   <path d="m1592.6 353.74c-48.111 17.3 42.588 102.12-37.819 161.19-22.626 16.622 57.868 2.0908 81.723-66.585 23.198-66.786 1.1324-107.54-43.904-94.607z" fill="url(#f)"/>
  </g>
  <path d="m81.288 132.2c-1.211 0.32961-8.1786-9.6743-9.9563-9.7868 4.0067-0.1447 6.4787 5.2629 9.9563 9.7868z" fill="#fff"/>
 </g>
</svg>
